<?xml version="1.0" encoding="UTF-8" standalone="no"?>
<!-- Uploaded to: SVG Repo, www.svgrepo.com, Generator: SVG Repo Mixer Tools -->

<svg
   width="708"
   height="708"
   viewBox="0 0 28.32 28.32"
   fill="none"
   version="1.1"
   id="svg14"
   sodipodi:docname="instagram.svg"
   inkscape:version="1.3 (0e150ed6c4, 2023-07-21)"
   xmlns:inkscape="http://www.inkscape.org/namespaces/inkscape"
   xmlns:sodipodi="http://sodipodi.sourceforge.net/DTD/sodipodi-0.dtd"
   xmlns="http://www.w3.org/2000/svg"
   xmlns:svg="http://www.w3.org/2000/svg">
  <sodipodi:namedview
     id="namedview14"
     pagecolor="#ffffff"
     bordercolor="#000000"
     borderopacity="0.25"
     inkscape:showpageshadow="2"
     inkscape:pageopacity="0.0"
     inkscape:pagecheckerboard="0"
     inkscape:deskcolor="#d1d1d1"
     inkscape:zoom="0.97125"
     inkscape:cx="400"
     inkscape:cy="400"
     inkscape:window-width="1920"
     inkscape:window-height="991"
     inkscape:window-x="-9"
     inkscape:window-y="-9"
     inkscape:window-maximized="1"
     inkscape:current-layer="svg14" />
  <rect
     x="0.18790218"
     y="0.10553411"
     width="28"
     height="28"
     rx="6"
     fill="url(#paint0_radial_87_7153)"
     id="rect1"
     style="fill:url(#paint0_radial_87_7153)" />
  <rect
     x="0.18790218"
     y="0.10553411"
     width="28"
     height="28"
     rx="6"
     fill="url(#paint1_radial_87_7153)"
     id="rect2"
     style="fill:url(#paint1_radial_87_7153)" />
  <rect
     x="0.18790218"
     y="0.10553411"
     width="28"
     height="28"
     rx="6"
     fill="url(#paint2_radial_87_7153)"
     id="rect3"
     style="fill:url(#paint2_radial_87_7153)" />
  <path
     d="m 21.187902,8.6055341 c 0,0.8284 -0.6716,1.4999999 -1.5,1.4999999 -0.8284,0 -1.5,-0.6715999 -1.5,-1.4999999 0,-0.82843 0.6716,-1.5 1.5,-1.5 0.8284,0 1.5,0.67157 1.5,1.5 z"
     fill="#ffffff"
     id="path3" />
  <path
     fill-rule="evenodd"
     clip-rule="evenodd"
     d="m 14.187902,19.105534 c 2.7614,0 5,-2.2386 5,-5 0,-2.7614 -2.2386,-4.9999999 -5,-4.9999999 -2.7614,0 -4.9999998,2.2385999 -4.9999998,4.9999999 0,2.7614 2.2385998,5 4.9999998,5 z m 0,-2 c 1.6569,0 3,-1.3431 3,-3 0,-1.6569 -1.3431,-3 -3,-3 -1.6569,0 -3,1.3431 -3,3 0,1.6569 1.3431,3 3,3 z"
     fill="#ffffff"
     id="path4" />
  <path
     fill-rule="evenodd"
     clip-rule="evenodd"
     d="m 4.1879022,13.705534 c 0,-3.3603 0,-5.0404999 0.65396,-6.3239399 0.57524,-1.12898 1.49312,-2.04686 2.6221,-2.6221 1.28344,-0.65396 2.9636398,-0.65396 6.3239398,-0.65396 h 0.8 c 3.3603,0 5.0405,0 6.3239,0.65396 1.129,0.57524 2.0469,1.49312 2.6221,2.6221 0.654,1.28344 0.654,2.9636399 0.654,6.3239399 v 0.8 c 0,3.3603 0,5.0405 -0.654,6.3239 -0.5752,1.129 -1.4931,2.0469 -2.6221,2.6221 -1.2834,0.654 -2.9636,0.654 -6.3239,0.654 h -0.8 c -3.3603,0 -5.0404998,0 -6.3239398,-0.654 -1.12898,-0.5752 -2.04686,-1.4931 -2.6221,-2.6221 -0.65396,-1.2834 -0.65396,-2.9636 -0.65396,-6.3239 z M 13.787902,6.1055341 h 0.8 c 1.7132,0 2.8777,0.00156 3.7779,0.0751 0.8769,0.07164 1.3253,0.20149 1.6381,0.36087 0.7526,0.3835 1.3645,0.99542 1.748,1.74803 0.1594,0.3128 0.2893,0.7612 0.3609,1.6381 0.0735,0.9001999 0.0751,2.0646999 0.0751,3.7778999 v 0.8 c 0,1.7132 -0.0016,2.8777 -0.0751,3.7779 -0.0716,0.8769 -0.2015,1.3253 -0.3609,1.6381 -0.3835,0.7526 -0.9954,1.3645 -1.748,1.748 -0.3128,0.1594 -0.7612,0.2893 -1.6381,0.3609 -0.9002,0.0735 -2.0647,0.0751 -3.7779,0.0751 h -0.8 c -1.7132,0 -2.8777,-0.0016 -3.7779,-0.0751 -0.8768998,-0.0716 -1.3252998,-0.2015 -1.6380998,-0.3609 -0.75261,-0.3835 -1.36453,-0.9954 -1.74803,-1.748 -0.15938,-0.3128 -0.28923,-0.7612 -0.36087,-1.6381 -0.07354,-0.9002 -0.0751,-2.0647 -0.0751,-3.7779 v -0.8 c 0,-1.7132 0.00156,-2.8777 0.0751,-3.7778999 0.07164,-0.8769 0.20149,-1.3253 0.36087,-1.6381 0.3835,-0.75261 0.99542,-1.36453 1.74803,-1.74803 0.3128,-0.15938 0.7612,-0.28923 1.6380998,-0.36087 0.9002,-0.07354 2.0647,-0.0751 3.7779,-0.0751 z"
     fill="#ffffff"
     id="path5" />
  <defs
     id="defs14">
    <radialGradient
       id="paint0_radial_87_7153"
       cx="0"
       cy="0"
       r="1"
       gradientUnits="userSpaceOnUse"
       gradientTransform="matrix(14.500016,-20.999988,20.999988,14.500016,10.187902,21.105534)">
      <stop
         stop-color="#B13589"
         id="stop5" />
      <stop
         offset="0.79309"
         stop-color="#C62F94"
         id="stop6" />
      <stop
         offset="1"
         stop-color="#8A3AC8"
         id="stop7" />
    </radialGradient>
    <radialGradient
       id="paint1_radial_87_7153"
       cx="0"
       cy="0"
       r="1"
       gradientUnits="userSpaceOnUse"
       gradientTransform="matrix(9.4999814,-20.499957,20.499957,9.4999814,9.1879022,29.105534)">
      <stop
         stop-color="#E0E8B7"
         id="stop8" />
      <stop
         offset="0.444662"
         stop-color="#FB8A2E"
         id="stop9" />
      <stop
         offset="0.71474"
         stop-color="#E2425C"
         id="stop10" />
      <stop
         offset="1"
         stop-color="#E2425C"
         stop-opacity="0"
         id="stop11" />
    </radialGradient>
    <radialGradient
       id="paint2_radial_87_7153"
       cx="0"
       cy="0"
       r="1"
       gradientUnits="userSpaceOnUse"
       gradientTransform="matrix(38.500027,-5.5000022,1.1763934,8.2347563,-1.3120958,1.1055341)">
      <stop
         offset="0.156701"
         stop-color="#406ADC"
         id="stop12" />
      <stop
         offset="0.467799"
         stop-color="#6A45BE"
         id="stop13" />
      <stop
         offset="1"
         stop-color="#6A45BE"
         stop-opacity="0"
         id="stop14" />
    </radialGradient>
  </defs>
</svg>
